<mxfile host="app.diagrams.net" modified="2023-08-15T21:50:20.087Z" agent="Mozilla/5.0 (Windows NT 10.0; Win64; x64) AppleWebKit/537.36 (KHTML, like Gecko) Chrome/115.0.0.0 Safari/537.36" version="21.6.8" etag="AzpaxJkCC6wj0oDoFjeF" type="github">
  <diagram name="PÃ¡gina-1" id="3usMom4O16R_IzNRqNbR">
    <mxGraphModel>
      <root>
        <mxCell id="0" />
        <mxCell id="1" parent="0" />
      </root>
    </mxGraphModel>
  </diagram>
</mxfile>
